<svg xmlns="http://www.w3.org/2000/svg" width="414.287" height="414.287" style="enable-background:new 0 0 414.287 414.287" xml:space="preserve"><path d="M412.398 202.993 288.535 95.289a5.498 5.498 0 0 0-9.031 3.234l-8.938 52.887H40.554a5.5 5.5 0 0 0-5.423 4.583l-3.054 18.067a5.496 5.496 0 0 0 1.223 4.467 5.497 5.497 0 0 0 4.2 1.95h103.982l-2.208 15H8.134a5.5 5.5 0 0 0-5.423 4.583L.077 215.644A5.497 5.497 0 0 0 5.5 222.06h159.196l-2.206 15H63.505a5.5 5.5 0 0 0-5.423 4.583l-2.505 14.817A5.497 5.497 0 0 0 61 262.877h190.721l-8.628 51.053a5.502 5.502 0 0 0 5.421 6.417c1.07 0 2.141-.312 3.067-.935l160.272-107.704a5.503 5.503 0 0 0 .545-8.715z"/></svg>
