<svg xmlns="http://www.w3.org/2000/svg" viewBox="0 0 202.219 202.219" style="enable-background:new 0 0 202.219 202.219" xml:space="preserve"><path style="fill:#FFCC80" d="M202.219 95.172c0-16.949-15.275-30.513-32.664-27.489-6.181-10.017-18.399-15.3-30.12-12.515-4.985-8.686-14.119-14.018-24.179-14.018-9.87 0-18.492 5.193-23.449 12.984-6.08-3.951-13.235-6.216-20.807-6.216-20.607 0-37.46 16.341-38.276 36.934C13.961 87.582 0 103.608 0 122.758c0 21.122 17.189 38.312 38.315 38.312h115.289c21.122 0 38.312-17.189 38.312-38.312 0-1.929-.197-3.815-.476-5.669 6.535-5.1 10.779-12.998 10.779-21.917zm-48.615 62.322H38.315c-19.154 0-34.736-15.582-34.736-34.733 0-17.844 13.367-32.696 31.089-34.547l1.593-.372v-1.61c0-19.154 15.582-34.736 34.74-34.736 13.127 0 24.988 7.297 30.957 19.039l.673 1.321 1.417-.412a34.756 34.756 0 0 1 9.681-1.396c12.615 0 24.261 6.871 30.392 17.934l.651 1.167 1.299-.286c22.278-4.914 42.27 12.279 42.27 33.895-.004 19.154-15.583 34.736-34.737 34.736zm37.034-44.359c-4.871-18.639-23.438-31.88-44.052-28.03-6.914-11.531-19.383-18.635-32.861-18.635-3.096 0-6.199.387-9.269 1.152a38.358 38.358 0 0 0-9.738-11.474c4.309-6.836 11.871-11.42 20.539-11.42 9.19 0 17.497 5.111 21.677 13.338l.673 1.321 1.424-.412c10.966-3.192 22.668 1.854 28.058 11.578l.651 1.167 1.299-.286c15.657-3.429 29.601 8.604 29.601 23.739.001 7.128-3.095 13.517-8.002 17.962z"/></svg>