<svg xmlns="http://www.w3.org/2000/svg" width="40" height="40"><path fill="#fff" d="M7 37.5A4.505 4.505 0 0 1 2.5 33V7c0-2.481 2.019-4.5 4.5-4.5h26c2.481 0 4.5 2.019 4.5 4.5v26c0 2.481-2.019 4.5-4.5 4.5H7z"/><path fill="#4788c7" d="M33 3c2.206 0 4 1.794 4 4v26c0 2.206-1.794 4-4 4H7c-2.206 0-4-1.794-4-4V7c0-2.206 1.794-4 4-4h26m0-1H7a5 5 0 0 0-5 5v26a5 5 0 0 0 5 5h26a5 5 0 0 0 5-5V7a5 5 0 0 0-5-5z"/><path fill="#b6dcfe" d="M38 11.692H2V7a5 5 0 0 1 5-5h26a5 5 0 0 1 5 5v4.692z"/><path fill="#dff0fe" d="M32 9h2a1 1 0 0 0 1-1V6a1 1 0 0 0-1-1h-2a1 1 0 0 0-1 1v2a1 1 0 0 0 1 1z"/><path fill="#fff" d="M6 2.692h2v9H6z"/><path fill="#dff0fe" d="M8 2.692h2v9H8z"/><path fill="#b6dcfe" d="M10 2.692h2v9h-2z"/><path fill="#98ccfd" d="M12 2.692h2v9h-2z"/><path fill="#fff" d="M20 9a12 12 0 1 0 0 24 12 12 0 1 0 0-24Z"/><path fill="#4788c7" d="M33 3c2.206 0 4 1.794 4 4v3.692h-9.083C25.654 8.954 22.857 8 20 8s-5.654.954-7.917 2.692H3V7c0-2.206 1.794-4 4-4h26m0-1H7a5 5 0 0 0-5 5v4.692h10.431C14.496 10.011 17.129 9 20 9s5.504 1.011 7.569 2.692H38V7a5 5 0 0 0-5-5z"/><path fill="#b6dcfe" d="M20 30.5c-5.238 0-9.5-4.262-9.5-9.5s4.262-9.5 9.5-9.5 9.5 4.262 9.5 9.5-4.262 9.5-9.5 9.5z"/><path fill="#4788c7" d="M20 12c4.963 0 9 4.037 9 9s-4.037 9-9 9-9-4.037-9-9 4.037-9 9-9m0-1c-5.523 0-10 4.477-10 10s4.477 10 10 10 10-4.477 10-10-4.477-10-10-10z"/><path fill="#4788c7" d="M20 19a2 2 0 1 0 0 4 2 2 0 1 0 0-4Z"/><path fill="#4788c7" d="M33 3c2.206 0 4 1.794 4 4v26c0 2.206-1.794 4-4 4H7c-2.206 0-4-1.794-4-4V7c0-2.206 1.794-4 4-4h26m0-1H7a5 5 0 0 0-5 5v26a5 5 0 0 0 5 5h26a5 5 0 0 0 5-5V7a5 5 0 0 0-5-5z"/></svg>