<svg xmlns="http://www.w3.org/2000/svg" width="16" height="16" viewBox="0 0 16 16"><path fill="#444" d="M2 0v1h-.52a.48.48 0 0 0-.48.48.48.48 0 0 0 .478.52H2v1h-.52a.48.48 0 0 0-.48.48.48.48 0 0 0 .478.52H2v1h-.52a.48.48 0 0 0-.48.48.48.48 0 0 0 .478.52H2v1h-.52a.48.48 0 0 0-.48.48.48.48 0 0 0 .478.52H2v1h-.52a.48.48 0 0 0 0 .96H2v1h-.52a.48.48 0 0 0 0 .96H2v1h-.52a.48.48 0 0 0 0 .96H2v2h12V0H2zm1.5 14a.5.5 0 1 1 0-1 .5.5 0 0 1 0 1zm0-2a.5.5 0 1 1 0-1 .5.5 0 0 1 0 1zm0-2a.5.5 0 1 1 0-1 .5.5 0 0 1 0 1zm0-2a.5.5 0 1 1 0-1 .5.5 0 0 1 0 1zm0-2a.5.5 0 1 1 0-1 .5.5 0 0 1 0 1zm0-2a.5.5 0 1 1 0-1 .5.5 0 0 1 0 1zm0-2a.5.5 0 1 1 0-1 .5.5 0 0 1 0 1zM12 6H6V3h6v3z"/></svg>